<?xml version="1.0" standalone="no"?>
<!DOCTYPE svg PUBLIC "-//W3C//DTD SVG 20010904//EN"
 "http://www.w3.org/TR/2001/REC-SVG-20010904/DTD/svg10.dtd">
<svg version="1.0" xmlns="http://www.w3.org/2000/svg"
 width="1024.000000pt" height="1024.000000pt" viewBox="0 0 1024.000000 1024.000000"
 preserveAspectRatio="xMidYMid meet">

<g transform="translate(0.000000,1024.000000) scale(0.100000,-0.100000)"
fill="#000000" stroke="none">
<path d="M8182 8789 c-148 -19 -249 -64 -334 -150 -181 -181 -184 -517 -5
-686 72 -68 162 -112 347 -168 167 -50 233 -76 264 -103 31 -27 56 -93 56
-147 0 -125 -89 -205 -229 -205 -145 0 -230 70 -249 206 l-7 49 -188 3 -187 2
0 -58 c0 -75 31 -199 67 -265 58 -107 179 -196 318 -233 33 -8 111 -18 172
-21 263 -13 477 66 582 217 146 207 125 524 -44 679 -76 68 -167 112 -360 171
-93 29 -186 61 -206 71 -150 76 -117 289 50 329 127 30 249 -39 267 -153 l7
-37 171 2 171 3 -3 35 c-14 167 -79 287 -202 370 -71 48 -151 76 -260 89 -93
12 -107 12 -198 0z"/>
<path d="M1390 8600 l0 -160 205 0 205 0 0 -690 0 -690 195 0 195 0 0 690 0
690 205 0 205 0 0 160 0 160 -605 0 -605 0 0 -160z"/>
<path d="M2830 7910 l0 -850 505 0 505 0 0 160 0 160 -315 0 -315 0 0 180 0
180 290 0 290 0 0 160 0 160 -290 0 -290 0 0 190 0 190 315 0 315 0 0 160 0
160 -505 0 -505 0 0 -850z"/>
<path d="M4040 8600 l0 -160 195 0 195 0 0 -690 0 -690 195 0 195 0 0 690 0
690 205 0 205 0 0 160 0 160 -595 0 -595 0 0 -160z"/>
<path d="M5450 7910 l0 -850 190 0 190 0 0 315 0 316 92 -3 93 -3 127 -230
c69 -126 147 -267 173 -312 l46 -83 200 0 200 0 -29 53 c-17 28 -99 176 -182
327 -84 151 -157 280 -162 286 -6 8 9 22 48 43 170 97 254 251 254 467 0 86
-5 119 -25 181 -47 138 -120 225 -240 284 -110 53 -161 59 -587 59 l-388 0 0
-850z m745 511 c88 -40 130 -139 105 -248 -10 -45 -22 -67 -54 -99 -54 -55
-93 -65 -268 -71 l-148 -5 0 221 0 221 163 0 c135 0 169 -3 202 -19z"/>
<path d="M7000 7910 l0 -850 195 0 195 0 0 850 0 850 -195 0 -195 0 0 -850z"/>
<path d="M6066 6319 l-26 -20 0 -500 0 -500 25 -24 24 -25 453 0 453 0 -3
-904 c-2 -902 -2 -903 19 -930 l20 -26 485 0 c484 0 515 2 536 34 4 6 8 656 8
1444 0 1419 0 1432 -20 1452 -20 20 -33 20 -984 20 -959 0 -963 0 -990 -21z"/>
<path d="M2192 6024 l-22 -15 0 -1425 c0 -1411 0 -1424 20 -1444 20 -20 33
-20 960 -20 l940 0 0 -410 0 -410 -454 0 c-443 0 -454 0 -480 -21 l-26 -20 0
-488 0 -488 23 -21 23 -22 1948 2 c1915 3 1948 3 1962 22 12 17 14 102 14 503
l0 484 -25 24 -24 25 -456 0 -455 0 0 919 0 920 -26 20 c-26 21 -37 21 -480
21 l-454 0 0 443 c0 384 -2 445 -16 465 l-15 22 -513 0 c-484 0 -514 -1 -529
-18 -15 -17 -17 -64 -17 -465 l0 -447 -420 0 -420 0 0 913 c0 873 -1 915 -18
930 -17 15 -67 17 -518 17 -436 0 -502 -2 -522 -16z m928 -514 l0 -400 -410 0
-410 0 0 400 0 400 410 0 410 0 0 -400z m0 -927 l0 -403 -410 0 -410 0 0 403
0 402 410 0 410 0 0 -402z m1935 2 l1 -405 -418 0 -418 0 0 405 0 405 418 0
417 0 0 -405z m-1935 -935 l0 -400 -410 0 -410 0 0 403 0 402 410 -3 410 -2 0
-400z m970 3 l0 -403 -417 0 -418 0 2 402 c2 222 3 403 3 403 0 0 187 0 415 0
l415 0 0 -402z m965 -3 l5 -400 -420 0 -420 0 0 403 0 402 416 -2 415 -3 4
-400z m955 8 c0 -219 1 -400 3 -403 1 -3 -186 -6 -416 -8 l-417 -2 0 405 0
405 415 0 415 0 0 -397z m-953 -946 l2 -407 -420 0 -419 0 0 408 0 407 418 0
417 0 2 -408z m956 2 l-3 -406 -415 -2 -415 -1 0 408 0 407 418 0 417 0 -2
-406z m-1920 -941 c-2 -225 -5 -407 -8 -405 -3 1 -191 2 -417 2 l-413 0 0 405
0 405 420 0 420 0 -2 -407z m967 2 l-1 -405 -419 0 -420 0 0 405 0 405 420 0
420 0 0 -405z m955 0 l0 -405 -418 -2 -417 -3 0 408 0 407 418 0 417 0 0 -405z
m965 0 l0 -405 -420 0 -420 0 0 405 0 405 420 0 420 0 0 -405z"/>
<path d="M2312 5514 l3 -386 365 1 c201 0 380 0 398 0 l32 1 0 385 0 385 -400
0 -400 0 2 -386z"/>
<path d="M2310 4580 l0 -390 400 0 400 0 0 390 0 390 -400 0 -400 0 0 -390z"/>
<path d="M2310 3650 l0 -390 400 0 400 0 0 390 -1 390 -399 0 -400 0 0 -390z"/>
<path d="M3270 3650 l0 -390 405 0 405 0 0 390 0 390 -405 0 -405 0 0 -390z"/>
</g>
</svg>
